Source: ROVERS(Thanks)
 
http://www.imdb.com/title/tt2078552/



Format: AVI
Format/Info: Audio Video Interleave
File size: 697 MiB
Duration: 1h 32mn
Overall bit rate: 1 056 Kbps
Writing library: VirtualDub build 32842/release

Video
ID: 0
Format: MPEG-4 Visual
Format profile: Advanced Simple@L5
Format settings, BVOP: 2
Format settings, QPel: No
Format settings, GMC: No warppoints
Format settings, Matrix: Default (H.263)
Muxing mode: Packed bitstream
Codec ID: XVID
Codec ID/Hint: XviD
Duration: 1h 32mn
Bit rate: 919 Kbps
Width: 640 pixels
Height: 272 pixels
Display aspect ratio: 2.35:1
Frame rate: 23.976 fps
Color space: YUV
Chroma subsampling: 4:2:0
Bit depth: 8 bits
Scan type: Progressive
Compression mode: Lossy
Bits/(Pixel*Frame): 0.220
Stream size: 606 MiB (87%)
Writing library: XviD 64

Audio
ID: 1
Format: MPEG Audio
Format version: Version 1
Format profile: Layer 3
Mode: Joint stereo
Mode extension: MS Stereo
Codec ID: 55
Codec ID/Hint: MP3
Duration: 1h 32mn
Bit rate mode: Constant
Bit rate: 128 Kbps
Channel(s): 2 channels
Sampling rate: 48.0 KHz
Compression mode: Lossy
Stream size: 84.5 MiB (12%)
Alignment: Split accross interleaves
Interleave, duration: 42 ms (1.00 video frame)
Interleave, preload duration: 500 ms
Writing library: LAME3.98



Thriller charting the moral collapse of a police family. Two cop brothers, smothered by the shadow of their former police chief father, must investigate a crime they themselves have committed 
 
http://www.shotpix.com/images/09319463718818027166.png 
http://www.shotpix.com/images/89529340053339193664.png 
http://www.shotpix.com/images/72389851313404763760.png